:SAMPLES-PER-SECOND 30
:FULLY-SPECIFIED
:DEGREES
345
root  34.8002186 36.55285873 -14.38164298 8.650216103 -4.592181206 2.843183994
lowerback  -8.418230057 -0.4628823996 -0.3592872024
upperback  -3.802852631 -0.1364659965 -3.278320074
thorax  0.7805150151 0.08529612422 -3.195230007
lowerneck  -7.847040176 -13.07479954 -9.921859741
upperneck  12.30990028 -17.74399948 10.1548996
head  6.842871666 -8.285499573 3.104720116
lclavicle  0 -4.497500157e-015 -2.743230041e-014
lhumerus  -47.49219894 30.02750015 64.20200348
lradius  -0.009674543515 -6.507048965e-006 30.02820206
lwrist  3.192251654e-007 -3.790274832e-007 -28.16530037
lhand  -0 -36.83909988 -10.6626997
lfingers  90 7.125020027 -90
lthumb  94.78491835 -25.50092582 101.0027643
rclavicle  0 -4.497500157e-015 -2.743230041e-014
rhumerus  -57.38770294 -47.14720154 -42.77999496
rradius  -5.16745672e-007 2.214343908e-008 34.14490128
rwrist  0.0003490542294 -0.002273720223 -139.3919983
rhand  -1.77584623e-031 6.169069767 -7.775509834
rfingers  -90 -7.125020027 -90
rthumb  -84.78306999 -8.445004404 -58.13016795
rfemur  -10.36480141 16.19413757 13.4057579
rtibia  0.01239515934 -0.4919641018 18.1774044
rfoot  1.440428615 -21.09973335 -35.8396492
rtoes  4.093974866 19.5933172 -102.0483982
lfemur  -5.14833498 -15.59627724 -20.76047325
ltibia  4.341657162 -0.06843561679 11.0672884
lfoot  0.2358160764 -23.43341446 36.10594177
ltoes  -8.495921381 -18.17304939 -115.5920086
346
root  34.8007112 36.55370277 -14.38172859 8.67229557 -4.592315197 2.846800089
lowerback  -8.388730049 -0.4649166167 -0.3709925115
upperback  -3.800080061 -0.146382004 -3.268379927
thorax  0.7633339763 0.08297020197 -3.178970098
lowerneck  -7.812250137 -13.09500027 -9.965680122
upperneck  12.30389977 -17.77350044 10.19169998
head  6.839725494 -8.300049782 3.120399714
lclavicle  0 -4.497500157e-015 -2.743230041e-014
lhumerus  -47.57490158 30.04269981 64.1740036
lradius  -0.009674543515 -6.507048965e-006 30.04472733
lwrist  3.192251654e-007 -3.790274832e-007 -28.18440056
lhand  -4.411044222e-031 -36.82030106 -10.59200001
lfingers  90 7.125020027 -90
lthumb  94.76120556 -25.43214571 100.9762751
rclavicle  0 -4.497500157e-015 -2.743230041e-014
rhumerus  -57.22990036 -46.94919968 -43.0155983
rradius  -5.16745672e-007 2.214343908e-008 34.17430115
rwrist  0.0003490542294 -0.002273720223 -139.6390076
rhand  -1.77348551e-031 5.417890072 -7.678780079
rfingers  -90 -7.125020027 -90
rthumb  -84.91057212 -8.474691709 -58.85417425
rfemur  -10.37794304 16.19001389 13.38931847
rtibia  0.02021290362 -0.4927208126 18.15707207
rfoot  1.454152465 -21.08127022 -35.82674026
rtoes  4.087228725 19.59467255 -102.0282816
lfemur  -5.246777534 -15.6490612 -20.7259922
ltibia  4.274980068 -0.09326072037 11.18326759
lfoot  0.2237088084 -23.42280579 36.09040833
ltoes  -8.480366243 -18.18011983 -115.5421438
347
root  34.80294596 36.55436058 -14.38188778 8.687540054 -4.62524128 2.850599289
lowerback  -8.387724876 -0.4662122428 -0.3690094352
upperback  -3.792959929 -0.1370420009 -3.270100117
thorax  0.7706180215 0.0808538273 -3.181200027
lowerneck  -7.767139912 -13.1111002 -10.0170002
upperneck  12.28629971 -17.79779816 10.23750019
head  6.839479923 -8.312569618 3.141469955
lclavicle  0 -4.497500157e-015 -2.743230041e-014
lhumerus  -47.60150146 30.0007 64.18430328
lradius  -0.009674543515 -6.507048965e-006 30.04395866
lwrist  3.192251654e-007 -3.790274832e-007 -28.12660027
lhand  -4.408027842e-031 -36.76789856 -10.62419987
lfingers  90 7.125020027 -90
lthumb  94.74348165 -25.46559309 100.9231345
rclavicle  0 -4.497500157e-015 -2.743230041e-014
rhumerus  -57.18189621 -46.81420135 -43.17410278
rradius  -5.16745672e-007 2.214343908e-008 34.25170135
rwrist  0.0003490542294 -0.002273720223 -139.9420013
rhand  -1.774410251e-031 5.724100113 -7.63781023
rfingers  -90 -7.125020027 -90
rthumb  -84.8165281 -8.530844554 -58.5527361
rfemur  -10.39355659 16.17356682 13.36893082
rtibia  0.02671317756 -0.5186883807 18.14056587
rfoot  1.470110893 -21.11565781 -35.78234482
rtoes  4.083820056 19.59535648 -102.0181177
lfemur  -5.287362099 -15.65019512 -20.72646141
ltibia  4.252746582 -0.1018993258 11.23345089
lfoot  0.234836325 -23.43173218 36.11066055
ltoes  -8.492414446 -18.17464484 -115.5807648
348
root  34.80462202 36.55390101 -14.38186525 8.67623806 -4.639822006 2.854709148
lowerback  -8.414050102 -0.4655989707 -0.3613248169
upperback  -3.787280083 -0.141415 -3.272520065
thorax  0.7907019854 0.07998369634 -3.1884799
lowerneck  -7.767039776 -13.12380028 -10.02029991
upperneck  12.29380035 -17.8171978 10.24969959
head  6.845359802 -8.320659637 3.142930031
lclavicle  0 -4.497500157e-015 -2.743230041e-014
lhumerus  -47.63650131 30.05459976 64.13809967
lradius  -0.009674543515 -6.507048965e-006 30.03820038
lwrist  3.192251654e-007 -3.790274832e-007 -28.17690086
lhand  -4.406361945e-031 -36.73889923 -10.68739986
lfingers  90 7.125020027 -90
lthumb  94.74317799 -25.52868654 100.897862
rclavicle  0 -4.497500157e-015 -2.743230041e-014
rhumerus  -57.07099915 -46.68130112 -43.39530182
rradius  -5.16745672e-007 2.214343908e-008 34.35329819
rwrist  0.0003490542294 -0.002273720223 -140.0870056
rhand  -1.775804263e-031 6.156529903 -7.649740219
rfingers  -90 -7.125020027 -90
rthumb  -84.71896439 -8.550893168 -58.13241475
rfemur  -10.37511921 16.15445709 13.36141586
rtibia  0.0312461108 -0.5475789309 18.12869263
rfoot  1.45898211 -21.18236732 -35.79185486
rtoes  4.115949166 19.58888615 -102.1139334
lfemur  -5.277659893 -15.68400955 -20.73169136
ltibia  4.253919601 -0.1230224967 11.23953152
lfoot  0.2428457141 -23.38837814 36.15369415
ltoes  -8.492869012 -18.17443809 -115.5822222
